<!DOCTYPE svg PUBLIC "-//W3C//DTD SVG 1.1//EN" "http://www.w3.org/Graphics/SVG/1.1/DTD/svg11.dtd">
<!-- Uploaded to: SVG Repo, www.svgrepo.com, Transformed by: SVG Repo Mixer Tools -->
<svg fill="#ffffff" height="22.5px" width="22.5px" version="1.1" id="Layer_1" xmlns="http://www.w3.org/2000/svg" xmlns:xlink="http://www.w3.org/1999/xlink" viewBox="0 0 502.4 502.4" xml:space="preserve" stroke="#ffffff">
<g id="SVGRepo_bgCarrier" stroke-width="0"/>
<g id="SVGRepo_tracerCarrier" stroke-linecap="round" stroke-linejoin="round"/>
<g id="SVGRepo_iconCarrier"> <g> <g> <path d="M487.466,20.8c-1.067-11.733-9.6-20.267-21.333-20.267H380.8c-11.733,0-21.333,8.533-21.333,20.267l-8.533,276.267 h-45.867V187.2c0-11.733-9.6-21.333-21.333-21.333h-262.4C9.6,165.867,0,175.467,0,187.2v293.333 c0,11.733,9.6,21.333,21.333,21.333H217.6h66.133H364.8h30.933H480c6.4,0,11.733-2.133,16-6.4s6.4-9.6,6.4-14.933L487.466,20.8z M217.6,297.067c-11.733,0-21.333,9.6-21.333,21.333v141.867H41.6v-252.8h220.8v89.6H217.6z M374.399,459.2h-9.6 c-2.133,0-4.267,0-6.4,1.067h-74.667h-45.867v0V339.734h136.533V459.2z M417.066,459.2V318.4c0-11.733-9.6-21.333-21.333-21.333 h-3.2L400,42.133h44.8L458.667,459.2H417.066z"/> </g> </g> </g>
</svg>